<svg version="1.1" id="Layer_1" xmlns="http://www.w3.org/2000/svg" xmlns:xlink="http://www.w3.org/1999/xlink" x="0px" y="0px"
	 width="100%" viewBox="0 0 180 180" enable-background="new 0 0 180 180" xml:space="preserve">
<path fill="#FFC107" opacity="1.000000" stroke="none" 
	d="
M138.999969,76.832176 
	C149.591492,80.571709 153.344666,88.245277 153.118103,99.186371 
	C152.704712,119.149887 152.678528,139.135406 153.131058,159.097214 
	C153.371674,169.711304 145.442474,178.906982 133.310364,178.960602 
	C105.017143,179.085632 76.722191,179.123611 48.429581,178.942245 
	C36.420269,178.865265 28.680801,169.615952 28.879475,159.336884 
	C29.281431,138.540405 29.207333,117.727638 28.900476,96.927910 
	C28.771673,88.197273 33.133202,80.259071 43.079109,76.969055 
	C51.183384,76.499626 58.542233,76.211205 66.376587,75.956329 
	C83.267715,75.967522 99.683334,75.945152 116.551033,76.027832 
	C124.335396,76.365974 131.667679,76.599075 138.999969,76.832176 
M100.941818,143.428909 
	C98.979858,136.995712 100.667038,132.265945 105.793816,127.413750 
	C111.434227,122.075447 111.011391,112.865135 106.594574,106.232063 
	C102.161209,99.574135 93.731705,96.403374 86.080032,98.515495 
	C72.118668,102.369316 67.685524,119.526100 78.002487,129.750641 
	C80.039635,131.769531 82.957359,133.211655 82.079971,136.999969 
	C81.448608,139.726028 81.332047,142.567123 80.803360,145.321884 
	C78.579803,156.907761 79.221069,157.733978 90.771667,157.734192 
	C102.926636,157.734421 104.057617,156.249588 100.941818,143.428909 
z"/>
<path fill="#4F5889" opacity="1.000000" stroke="none" 
	d="
M65.901093,75.922783 
	C58.542233,76.211205 51.183384,76.499626 43.412273,76.810112 
	C43.336029,65.395851 42.930931,53.875763 44.211445,42.546188 
	C45.557186,30.639524 51.813461,20.635462 61.360947,13.434591 
	C78.062317,0.838146 96.257919,-0.843364 114.561089,9.420600 
	C128.218079,17.079107 136.722061,29.052385 137.927429,45.111065 
	C138.695862,55.348812 138.671280,65.646080 139.001129,76.374420 
	C131.667679,76.599075 124.335396,76.365974 116.569382,75.564407 
	C116.121635,66.669586 116.216568,58.341301 116.067772,50.017376 
	C115.851128,37.898537 105.959404,26.929375 94.532730,25.922359 
	C80.773727,24.709795 69.012764,31.993824 67.105370,44.642967 
	C65.559143,54.896946 66.219452,65.483650 65.901093,75.922783 
z"/>
<path fill="#525A88" opacity="1.000000" stroke="none" 
	d="
M100.965332,143.874634 
	C104.057617,156.249588 102.926636,157.734421 90.771667,157.734192 
	C79.221069,157.733978 78.579803,156.907761 80.803360,145.321884 
	C81.332047,142.567123 81.448608,139.726028 82.079971,136.999969 
	C82.957359,133.211655 80.039635,131.769531 78.002487,129.750641 
	C67.685524,119.526100 72.118668,102.369316 86.080032,98.515495 
	C93.731705,96.403374 102.161209,99.574135 106.594574,106.232063 
	C111.011391,112.865135 111.434227,122.075447 105.793816,127.413750 
	C100.667038,132.265945 98.979858,136.995712 100.965332,143.874634 
z"/>
</svg>